<svg height="512pt" viewBox="0 0 512 512.0126" width="512pt" xmlns="http://www.w3.org/2000/svg"><path d="m317.445312 360.460938h-276.480468c-25.429688-19.796876-30.546875-57.003907-15.359375-87.382813 17.066406-34.132813 8.535156-76.800781 8.535156-76.800781h290.132813s-8.535157 42.667968 8.53125 76.800781c15.191406 30.378906 10.070312 67.585937-15.359376 87.382813zm0 0" fill="#783e22"/><path d="m293.808594 360.460938h-252.84375c-25.429688-19.796876-30.546875-57.003907-15.359375-87.382813 17.066406-34.132813 8.535156-76.800781 8.535156-76.800781h266.496094s-8.535157 42.667968 8.53125 76.800781c15.191406 30.378906 10.070312 67.585937-15.359375 87.382813zm0 0" fill="#a0522d"/><path d="m301.832031 332.8125-20.226562 170.667969h-256c-9.414063-.027344-17.039063-7.652344-17.066407-17.066407v-51.203124c-.003906-49.15625 34.917969-91.382813 83.199219-100.605469zm0 0" fill="#283593"/><path d="m136.539062 334.21875 95.128907-.773438-52.460938 64.160157-42.667969-61.679688" fill="#bdc3c7"/><path d="m179.207031 384.011719-42.667969 6.160156-2.839843 35.320313 45.507812 77.988281 51.191407-110.789063zm0 0" fill="#9e9e9e"/><path d="m204.804688 287.84375v64.851562c-7.691407 11.097657-16.25 21.570313-25.597657 31.316407-9.347656-9.746094-17.910156-20.21875-25.601562-31.316407v-64.851562zm0 0" fill="#ffe0b2"/><path d="m324.273438 149.347656c0 1.363282 0 19.882813-.085938 21.332032h-289.960938c-.085937-1.449219-.085937-19.96875-.085937-21.332032.980469-74.363281 58.992187-135.460937 133.203125-140.289062 3.925781-.34375 7.851562-.511719 11.863281-.511719 78.929688-1.15625 143.867188 61.867187 145.066407 140.800781zm0 0" fill="#6d4122"/><path d="m300.636719 149.347656c0 1.363282 0 19.882813-.085938 21.332032h-266.324219c-.085937-1.449219-.085937-19.96875-.085937-21.332032.980469-74.363281 58.992187-135.460937 133.203125-140.289062 74.242188 4.792968 132.300781 65.898437 133.292969 140.289062zm0 0" fill="#91562d"/><path d="m306.609375 162.144531h17.664063c9.398437.070313 17 7.671875 17.066406 17.066407-.027344 9.414062-7.652344 17.039062-17.066406 17.066406h-290.132813c-9.414063-.027344-17.039063-7.652344-17.066406-17.066406.066406-9.394532 7.667969-16.996094 17.066406-17.066407zm0 0" fill="#dfc49c"/><path d="m93.871094 332.8125c-20.707032 16.753906-33.15625 41.648438-34.132813 68.265625 0 0 34.132813-18.449219 34.132813 8.535156 0 8.53125-8.53125 8.53125-8.53125 59.734375 0 0 51.199218-34.136718 93.867187 34.132813 0 0-8.535156-59.734375-34.132812-93.867188zm0 0" fill="#3f51b5"/><path d="m264.539062 332.8125c20.710938 16.753906 33.15625 41.648438 34.132813 68.265625 0 0-34.132813-18.449219-34.132813 8.535156 0 8.53125 8.535157 8.53125 8.535157 59.734375 0 0-51.203125-34.136718-93.867188 34.132813 0 0 8.53125-59.734375 34.132813-93.867188zm0 0" fill="#3f51b5"/><path d="m503.472656 332.8125v25.601562c.007813 6.789063-2.683594 13.308594-7.488281 18.109376-4.800781 4.804687-11.320313 7.5-18.113281 7.488281h-187.730469c-6.792969.011719-13.308594-2.683594-18.113281-7.488281-4.800782-4.800782-7.496094-11.320313-7.488282-18.109376v-25.601562c.027344-9.414062 7.652344-17.039062 17.066407-17.066406h204.800781c9.414062.027344 17.039062 7.652344 17.066406 17.066406zm0 0" fill="#624421"/><path d="m479.835938 332.8125v25.601562c.007812 6.789063-2.683594 13.308594-7.488282 18.109376-4.804687 4.804687-11.320312 7.5-18.113281 7.488281h-164.09375c-6.792969.011719-13.308594-2.683594-18.113281-7.488281-4.800782-4.800782-7.496094-11.320313-7.488282-18.109376v-25.601562c.027344-9.414062 7.652344-17.039062 17.066407-17.066406h181.164062c9.414063.027344 17.039063 7.652344 17.066407 17.066406zm0 0" fill="#825a2c"/><path d="m503.472656 358.414062v128c-.027344 9.414063-7.652344 17.039063-17.066406 17.066407h-204.800781c-9.414063-.027344-17.039063-7.652344-17.066407-17.066407v-128c-.007812 6.789063 2.6875 13.308594 7.488282 18.109376 4.804687 4.804687 11.320312 7.5 18.113281 7.488281h187.730469c.65625.015625 1.3125-.011719 1.964844-.085938 13.347656-.996093 23.660156-12.128906 23.636718-25.511719zm0 0" fill="#6d4122"/><path d="m479.835938 383.925781v102.488281c-.027344 9.414063-7.652344 17.039063-17.066407 17.066407h-181.164062c-9.414063-.027344-17.039063-7.652344-17.066407-17.066407v-102.488281c.652344.074219 1.308594.101563 1.964844.085938h211.367188c.65625.015625 1.3125-.011719 1.964844-.085938zm0 0" fill="#91562d"/><g fill="#f5f5f5"><path d="m407.105469 420.644531-17.066407 17.066407c-3.332031 3.332031-8.734374 3.332031-12.066406 0l-17.066406-17.066407c-1.601562-1.597656-2.5-3.769531-2.5-6.03125v-30.601562h51.199219v30.601562c0 2.261719-.898438 4.433594-2.5 6.03125zm0 0"/><path d="m179.207031 384.011719c-12.476562 6.964843-23.957031 15.574219-34.132812 25.601562-25.601563-17.066406-51.203125-76.800781-51.203125-76.800781 13.730468-4.910156 28.105468-7.785156 42.667968-8.535156 5.011719 9.867187 10.714844 19.363281 17.066407 28.417968 7.691406 11.097657 16.253906 21.570313 25.601562 31.316407zm0 0"/><path d="m264.539062 332.8125s-25.597656 59.734375-51.199218 76.800781c-10.179688-10.027343-21.660156-18.636719-34.132813-25.601562 9.347657-9.746094 17.90625-20.21875 25.597657-31.316407 6.355468-9.054687 12.058593-18.550781 17.066406-28.417968 14.5625.75 28.9375 3.625 42.667968 8.535156zm0 0"/></g><path d="m307.207031 173.152344c-.011719 4.050781-.242187 8.09375-.683593 12.117187-.425782 3.671875-1.023438 7.339844-1.792969 10.925781-12.003907 47.769532-51.296875 83.804688-99.925781 91.648438-8.441407 1.550781-17.011719 2.320312-25.597657 2.300781-4.011719 0-7.9375-.167969-11.777343-.511719-4.636719-.332031-9.253907-.929687-13.824219-1.789062-48.773438-7.789062-88.136719-44.027344-99.925781-91.992188-.765626-3.496093-1.363282-6.996093-1.789063-10.582031-.445313-4.023437-.671875-8.066406-.683594-12.117187-.019531-3.675782.179688-7.351563.597657-11.007813.253906-3.070312.765624-6.144531 1.277343-9.214843.597657-2.988282 1.367188-5.886719 2.136719-8.789063l4.519531-24.660156c43.179688-10.667969 65.109375-29.441407 75.777344-43.179688 4.121094-4.921875 7.355469-10.523437 9.558594-16.554687 0 0 27.132812 47.53125 105.640625 51.710937 2.5625.171875 5.121094.257813 7.851562.257813 7.6875.15625 15.378906-.101563 23.039063-.769532 8.894531 10.4375 16.277343 22.070313 21.929687 34.5625.683594 2.472657 1.28125 4.949219 1.792969 7.421876.511719 3.070312 1.023437 6.144531 1.28125 9.214843.414063 3.65625.617187 7.332031.597656 11.007813zm0 0" fill="#dfc49c"/><path d="m283.570312 173.152344c-.015624 4.050781-.242187 8.09375-.683593 12.117187-.425781 3.671875-1.023438 7.339844-1.792969 10.925781-12.003906 47.769532-51.296875 83.804688-99.925781 91.648438-4.539063.859375-9.128907 1.457031-13.738281 1.789062-4.636719-.332031-9.253907-.929687-13.824219-1.789062-48.773438-7.789062-88.136719-44.027344-99.925781-91.992188-.765626-3.496093-1.363282-6.996093-1.789063-10.582031-.445313-4.023437-.671875-8.066406-.683594-12.117187-.019531-3.675782.179688-7.351563.597657-11.007813.253906-3.070312.765624-6.144531 1.277343-9.214843.597657-2.988282 1.367188-5.886719 2.136719-8.789063l4.519531-24.660156c43.179688-10.667969 65.109375-29.441407 75.777344-43.179688 17.578125 16.296875 53.246094 38.484375 115.199219 35.15625 2.390625-.085937 4.78125-.253906 7.253906-.511719.222656.238282.421875.496094.597656.769532 8.71875 10.164062 15.90625 21.546875 21.332032 33.792968.683593 2.472657 1.28125 4.949219 1.792968 7.421876.511719 3.070312 1.023438 6.144531 1.28125 9.214843.414063 3.65625.613282 7.332031.597656 11.007813zm0 0" fill="#ffe0b2"/><path d="m51.890625 204.8125h-17.75c-14.132813-.015625-25.585937-11.46875-25.601563-25.601562.066407-14.109376 11.488282-25.53125 25.601563-25.597657h17.664063c4.710937 0 8.53125 3.820313 8.53125 8.53125 0 4.714844-3.820313 8.535157-8.53125 8.535157h-17.578126c-2.253906-.039063-4.421874.847656-6.003906 2.449218-1.675781 1.582032-2.621094 3.78125-2.617187 6.082032.003906 4.710937 3.824219 8.53125 8.535156 8.535156h17.75c4.710937 0 8.53125 3.820312 8.53125 8.53125 0 4.714844-3.820313 8.535156-8.53125 8.535156zm0 0"/><path d="m324.273438 204.8125h-17.75c-4.710938 0-8.53125-3.820312-8.53125-8.535156 0-4.710938 3.820312-8.53125 8.53125-8.53125h17.75c4.710937-.003906 8.527343-3.824219 8.53125-8.535156.023437-2.226563-.867188-4.363282-2.457032-5.921876-1.578125-1.671874-3.777344-2.617187-6.074218-2.609374h-17.664063c-4.714844 0-8.535156-3.820313-8.535156-8.535157 0-4.710937 3.820312-8.53125 8.535156-8.53125h17.578125c14.144531.023438 25.617188 11.457031 25.683594 25.597657-.011719 14.132812-11.464844 25.585937-25.597656 25.601562zm0 0"/><path d="m324.199219 170.679688c-.171875 0-.332031-.007813-.5-.015626-4.703125-.273437-8.296875-4.300781-8.03125-9 .082031-1.601562.070312-11.019531.070312-12.316406-1.277343-74.183594-62.347656-133.34375-136.53125-132.269531-74.1875-1.074219-135.253906 58.085937-136.535156 132.269531 0 1.304688-.007813 10.730469.070313 12.324219.175781 3.042969-1.289063 5.949219-3.839844 7.621094-2.550782 1.671875-5.796875 1.855469-8.519532.480469-2.722656-1.371094-4.507812-4.089844-4.679687-7.136719-.085937-1.507813-.097656-11.875-.097656-13.289063 1.289062-83.605468 69.992187-150.402344 153.601562-149.3359372 83.609375-1.0664068 152.3125 65.7304692 153.597657 149.3359372 0 1.414063-.011719 11.78125-.09375 13.289063-.261719 4.511719-3.996094 8.035156-8.511719 8.042969zm0 0"/><path d="m153.605469 361.230469c-4.710938 0-8.53125-3.824219-8.53125-8.535157v-64.851562c0-4.714844 3.820312-8.535156 8.53125-8.535156 4.714843 0 8.535156 3.820312 8.535156 8.535156v64.851562c0 4.710938-3.820313 8.535157-8.535156 8.535157zm0 0"/><path d="m204.804688 361.230469c-4.710938 0-8.53125-3.824219-8.53125-8.535157v-64.851562c0-4.714844 3.820312-8.535156 8.53125-8.535156 4.714843 0 8.535156 3.820312 8.535156 8.535156v64.851562c0 4.710938-3.820313 8.535157-8.535156 8.535157zm0 0"/><path d="m332.804688 512.011719h-307.199219c-14.132813-.015625-25.5820315-11.46875-25.5976565-25.597657v-51.203124c-.01171875-53.257813 37.8281255-99.011719 90.1445315-108.992188 4.597656-.800781 8.984375 2.234375 9.855468 6.820312.867188 4.585938-2.109374 9.015626-6.679687 9.949219-44.261719 8.449219-76.273437 47.164063-76.253906 92.222657v51.203124c.003906 4.710938 3.820312 8.527344 8.53125 8.53125h307.199219c4.714843 0 8.535156 3.820313 8.535156 8.535157 0 4.710937-3.820313 8.53125-8.535156 8.53125zm0 0"/><path d="m145.074219 418.144531c-1.683594 0-3.328125-.5-4.730469-1.433593-27.390625-18.265626-53.226562-78.007813-54.308594-80.539063-.9375-2.191406-.917968-4.679687.058594-6.851563.976562-2.175781 2.820312-3.84375 5.082031-4.597656 14.597657-5.214844 29.882813-8.242187 45.363281-8.976562 3.234376 0 6.1875 1.824218 7.632813 4.714844 10.910156 21.011718 24.734375 40.375 41.066406 57.515624 1.941407 1.941407 2.828125 4.695313 2.390625 7.402344-.441406 2.707032-2.15625 5.039063-4.609375 6.265625-11.652343 6.554688-22.382812 14.625-31.921875 24-1.59375 1.601563-3.761718 2.5-6.023437 2.5zm-39.410157-80.015625c8.339844 17.566406 23.980469 46.515625 38.9375 60.234375 6.617188-5.988281 13.675782-11.464843 21.113282-16.394531-13.175782-14.957031-24.644532-31.332031-34.191406-48.832031-8.75.917969-17.402344 2.589843-25.863282 4.992187zm0 0"/><path d="m213.34375 418.144531c-2.261719.003907-4.433594-.894531-6.03125-2.5-9.539062-9.371093-20.269531-17.441406-31.921875-24-2.453125-1.226562-4.164063-3.558593-4.605469-6.265625-.4375-2.707031.449219-5.457031 2.386719-7.398437 16.324219-17.148438 30.148437-36.511719 41.070313-57.515625 1.445312-2.890625 4.398437-4.71875 7.628906-4.71875 15.484375.734375 30.773437 3.761718 45.367187 8.976562 2.261719.753906 4.105469 2.421875 5.082031 4.597656.976563 2.171876 1 4.660157.0625 6.851563-1.085937 2.53125-26.914062 62.273437-54.308593 80.539063-1.402344.933593-3.046875 1.433593-4.730469 1.433593zm-20.640625-36.175781c7.4375 4.929688 14.496094 10.40625 21.113281 16.394531 14.960938-13.71875 30.597656-42.667969 38.9375-60.234375-8.460937-2.398437-17.113281-4.070312-25.855468-4.992187-9.550782 17.5-21.019532 33.878906-34.195313 48.832031zm0 0"/><path d="m179.207031 512.011719c-2.941406 0-5.679687-1.515625-7.238281-4.011719-13.3125-21.296875-28.613281-33.941406-45.488281-37.574219-12.460938-2.558593-25.429688-.417969-36.40625 6.015625-2.621094 1.746094-5.984375 1.910156-8.761719.425782-2.773438-1.484376-4.503906-4.375-4.507812-7.519532 0-38.035156 4.652343-49.425781 7.429687-56.238281.589844-1.082031.964844-2.269531 1.105469-3.496094 0-2.941406-.554688-5.027343-1.480469-5.574219-7.015625-.839843-14.109375.769532-20.074219 4.558594-2.644531 1.414063-5.839844 1.339844-8.417968-.199218-2.574219-1.539063-4.15625-4.316407-4.160157-7.320313.914063-29.320313 14.636719-56.765625 37.546875-75.09375 3.765625-2.832031 9.117188-2.074219 11.949219 1.691406 2.832031 3.769531 2.074219 9.117188-1.691406 11.953125-14.945313 12.40625-25.328125 29.441406-29.511719 48.410156 7.570312-2.648437 15.882812-2.167968 23.097656 1.332032 6.792969 4.386718 10.574219 12.191406 9.808594 20.242187-.078125 3.445313-.886719 6.835938-2.367188 9.949219-4.339843 11.632812-6.355468 24.007812-5.9375 36.417969 11.570313-3.976563 24.003907-4.746094 35.976563-2.234375 12.386719 2.816406 23.839844 8.773437 33.257813 17.300781-5.019532-20.09375-13.507813-39.152344-25.089844-56.320313-1.910156-2.433593-2.351563-5.710937-1.15625-8.5625 1.195312-2.855468 3.839844-4.835937 6.914062-5.183593 3.074219-.347657 6.09375.996093 7.894532 3.511719 26.609374 35.476562 35.398437 95.25 35.757812 97.773437.351562 2.453125-.375 4.933594-1.996094 6.804687-1.625 1.871094-3.976562 2.945313-6.453125 2.941407zm0 0"/><path d="m179.207031 512.011719c-2.476562 0-4.828125-1.074219-6.449219-2.941407-1.621093-1.871093-2.351562-4.351562-2-6.800781.359376-2.523437 9.144532-62.296875 35.753907-97.773437 1.8125-2.492188 4.824219-3.816406 7.882812-3.464844 3.058594.351562 5.691407 2.324219 6.886719 5.164062 1.199219 2.839844.769531 6.101563-1.113281 8.539063-11.578125 17.152344-20.070313 36.195313-25.089844 56.273437 19.410156-18.433593 47.808594-23.816406 72.617187-13.765624 2.925782 1.0625 5.039063 3.628906 5.519532 6.703124.480468 3.074219-.75 6.164063-3.210938 8.066407-2.460937 1.902343-5.761718 2.316406-8.613281 1.078125-15.894531-6.308594-46.769531-10.191406-74.945313 34.910156-1.558593 2.496094-4.292968 4.015625-7.238281 4.011719zm0 0"/><path d="m486.40625 512.011719h-204.800781c-14.132813-.015625-25.582031-11.46875-25.597657-25.597657v-153.601562c.015626-14.132812 11.464844-25.585938 25.597657-25.601562h204.800781c14.132812.015624 25.585938 11.46875 25.601562 25.601562v153.601562c-.015624 14.128907-11.46875 25.582032-25.601562 25.597657zm-204.800781-187.734375c-4.710938.007812-8.527344 3.824218-8.53125 8.535156v153.601562c.003906 4.710938 3.820312 8.527344 8.53125 8.53125h204.800781c4.710938-.003906 8.527344-3.820312 8.535156-8.53125v-153.601562c-.007812-4.710938-3.824218-8.527344-8.535156-8.535156zm0 0"/><path d="m443.738281 324.277344c-4.710937 0-8.53125-3.820313-8.53125-8.53125v-8.535156c-.015625-14.128907-11.46875-25.582032-25.601562-25.597657h-51.199219c-14.132812.015625-25.585938 11.46875-25.601562 25.597657v8.535156c0 4.710937-3.820313 8.53125-8.53125 8.53125-4.714844 0-8.535157-3.820313-8.535157-8.53125v-8.535156c.027344-23.550782 19.117188-42.636719 42.667969-42.664063h51.199219c23.554687.027344 42.640625 19.113281 42.667969 42.664063v8.535156c0 4.710937-3.820313 8.53125-8.535157 8.53125zm0 0"/><path d="m477.871094 392.546875h-187.730469c-18.84375-.019531-34.113281-15.292969-34.132813-34.132813v-8.535156c0-4.710937 3.820313-8.53125 8.53125-8.53125 4.714844 0 8.535157 3.820313 8.535157 8.53125v8.535156c.007812 9.417969 7.644531 17.054688 17.066406 17.066407h187.730469c9.421875-.011719 17.058594-7.648438 17.070312-17.066407v-8.535156c0-4.710937 3.820313-8.53125 8.53125-8.53125 4.714844 0 8.535156 3.820313 8.535156 8.53125v8.535156c-.019531 18.839844-15.292968 34.113282-34.136718 34.132813zm0 0"/><path d="m384.007812 452.277344c-2.265624.003906-4.4375-.894532-6.035156-2.5l-25.597656-25.597656c-1.601562-1.601563-2.503906-3.769532-2.503906-6.035157v-34.132812c0-4.710938 3.824218-8.53125 8.535156-8.53125h51.199219c4.714843 0 8.535156 3.820312 8.535156 8.53125v34.132812c0 2.265625-.898437 4.433594-2.5 6.035157l-25.601563 25.597656c-1.597656 1.605468-3.769531 2.503906-6.03125 2.5zm-17.066406-37.664063 17.066406 17.066407 17.066407-17.066407v-22.066406h-34.132813zm0 0"/><path d="m40.960938 368.992188c-1.898438.003906-3.742188-.628907-5.238282-1.796876-27.824218-21.667968-35.289062-62.847656-17.75-97.933593 15.507813-31.007813 7.875-70.914063 7.796875-71.316407-.597656-2.988281.445313-6.070312 2.738281-8.082031 2.289063-2.011719 5.480469-2.648437 8.367188-1.671875 2.886719.976563 5.035156 3.421875 5.632812 6.414063.367188 1.855469 8.898438 45.957031-9.269531 82.289062-13.914062 27.835938-8.460937 60.152344 12.972657 76.835938 2.875 2.238281 4.011718 6.058593 2.828124 9.503906-1.1875 3.449219-4.429687 5.761719-8.074218 5.761719zm0 0"/><path d="m336.304688 289.71875c-3.554688.003906-6.742188-2.203125-7.992188-5.53125-.882812-2.457031-1.914062-4.855469-3.085938-7.183594-18.222656-36.441406-9.691406-80.542968-9.320312-82.402344.921875-4.621093 5.414062-7.621093 10.039062-6.699218 4.621094.925781 7.621094 5.417968 6.695313 10.042968-.078125.398438-7.710937 40.308594 7.796875 71.316407 1.457031 2.898437 2.746094 5.875 3.859375 8.925781.984375 2.621094.621094 5.558594-.976563 7.859375-1.59375 2.300781-4.214843 3.671875-7.015624 3.671875zm0 0"/><path d="m179.207031 298.679688c-9.105469.011718-18.195312-.804688-27.15625-2.441407-52.230469-8.277343-94.339843-47.1875-106.714843-98.601562-.816407-3.722657-1.464844-7.5-1.921876-11.359375-.484374-4.355469-.730468-8.738282-.742187-13.125-.019531-4.011719.199219-8.027344.65625-12.015625.246094-2.992188.78125-6.273438 1.332031-9.558594.664063-3.355469 1.4375-6.332031 2.226563-9.304687l4.460937-24.335938c.605469-3.300781 3.089844-5.941406 6.351563-6.742188 67.800781-16.714843 79.066406-53.433593 79.167969-53.796874.945312-3.300782 3.777343-5.714844 7.183593-6.128907 3.410157-.410156 6.734375 1.261719 8.433594 4.242188 1.289063 2.210937 33.15625 54.761719 128.417969 46.933593 2.773437-.277343 5.5.859376 7.253906 3.027344 9.699219 11.234375 17.632812 23.878906 23.535156 37.5.808594 2.925782 1.453125 5.582032 2 8.242188.617188 3.648437 1.15625 6.929687 1.429688 10.214844.4375 3.894531.644531 7.808593.617187 11.722656-.007812 4.351562-.253906 8.703125-.730469 13.027344-.464843 4.011718-1.109374 7.957031-1.929687 11.800781-12.585937 51.222656-54.621094 89.929687-106.707031 98.257812-8.960938 1.636719-18.054688 2.453125-27.164063 2.441407zm-115.761719-152.265626c-.71875 2.707032-1.433593 5.40625-1.992187 8.191407-.425781 2.605469-.910156 5.425781-1.148437 8.257812-.390626 3.414063-.582032 6.851563-.566407 10.289063.011719 3.746094.222657 7.488281.632813 11.210937.386718 3.207031.933594 6.429688 1.648437 9.664063 10.933594 44.683594 47.6875 78.394531 93.148438 85.425781 15.902343 2.867187 32.183593 2.867187 48.085937 0 45.316406-7.074219 82-40.585937 93.140625-85.082031.703125-3.285156 1.257813-6.683594 1.652344-10.082032.40625-3.699218.617187-7.414062.625-11.136718.019531-3.339844-.160156-6.679688-.535156-9.996094-.269531-3.125-.746094-5.945312-1.21875-8.777344-.421875-2.023437-.972657-4.316406-1.605469-6.601562-4.503906-10.101563-10.402344-19.523438-17.527344-27.988282-75.914062 5.050782-115.257812-26.265624-131.265625-44.097656-9.566406 14.683594-31.53125 37.664063-79.367187 50.683594l-3.539063 19.289062-.023437.132813v.019531c-.046875.195313-.09375.394532-.144532.597656zm0 0"/></svg>