<svg height="512pt" viewBox="0 0 512 512" width="512pt" xmlns="http://www.w3.org/2000/svg"><path d="m363.777344 191.972656c-2.21875 1.960938-4.4375 3.839844-6.914063 5.632813 1.03125 2.1875 1.554688 4.578125 1.535157 6.996093-.027344 9.414063-7.652344 17.039063-17.066407 17.066407 0 0-8.53125 42.667969 8.535157 76.800781 15.1875 30.378906 10.070312 67.582031-15.359376 87.382812l-.085937.082032c20.789063 19.257812 32.578125 46.332031 32.511719 74.667968v25.601563c-.027344 9.414063-7.652344 17.039063-17.066406 17.066406h-307.199219c-9.414063-.027343-17.039063-7.652343-17.066407-17.066406v-25.601563c-.066406-28.335937 11.722657-55.410156 32.511719-74.667968l-.085937-.082032c-25.429688-19.800781-30.550782-57.003906-15.359375-87.382812 17.066406-34.132812 8.53125-76.800781 8.53125-76.800781-9.414063-.027344-17.039063-7.652344-17.066407-17.066407-.019531-2.417968.507813-4.808593 1.535157-6.996093-12.882813-11.519531-27.132813-30.378907-27.132813-44.203125 0-23.210938 20.308594-44.203125 53.332032-59.5625 2.152343-19.527344 7.699218-38.527344 16.382812-56.148438 10.214844-19.203125 30.789062-30.574218 52.480469-29.015625 11.046875.820313 21.667969 4.625 30.71875 11.007813 4.574219 4.101562 9.550781 7.730468 14.847656 10.839844 6.34375 2.535156 13.148437 3.699218 19.96875 3.410156h.769531c6.566406.203125 13.105469-.960938 19.199219-3.410156 5.300781-3.109376 10.273437-6.738282 14.847656-10.839844 9.054688-6.382813 19.671875-10.1875 30.71875-11.007813 21.695313-1.558593 42.265625 9.8125 52.480469 29.015625 8.6875 17.621094 14.230469 36.621094 16.386719 56.148438 33.023437 15.359375 53.332031 36.351562 53.332031 59.5625-.84375 15.132812-8.183594 29.164062-20.136719 38.484375zm0 0" fill="#af8066"/><path d="m341.246094 185.488281c.046875.679688.046875 1.363281 0 2.046875h-17.578125c-.253907-3.070312-.765625-6.144531-1.277344-9.214844-.769531-3.753906-1.707031-7.425781-2.816406-11.09375v-.085937c-.769531-1.792969-1.621094-3.753906-2.644531-5.804687l-1.195313.597656s-106.753906 7.167968-151.210937-37.203125h-.085938c-3.628906-3.609375-6.835938-7.617188-9.558594-11.949219 13.753906-1.386719 27.566406-2.070312 41.386719-2.046875 32.445313-.300781 64.785156 3.71875 96.171875 11.949219 15.59375 3.917968 30.601562 9.886718 44.628906 17.746094 2.808594 11.222656 4.242188 22.738281 4.265625 34.304687 0 1.023437 0 7.339844-.085937 10.753906zm0 0" fill="#91562d"/><path d="m152.746094 113.039062c-13.71875 30.464844-44.246094 49.851563-77.652344 49.324219-.769531 1.707031-1.449219 3.328125-2.132812 4.777344v.085937c-1.109376 3.667969-2.050782 7.339844-2.816407 11.09375-.511719 3.070313-1.023437 6.144532-1.28125 9.214844h-17.578125c-.046875-.683594-.046875-1.367187 0-2.046875-.085937-3.414062-.085937-9.730469-.085937-10.753906.027343-11.566406 1.457031-23.082031 4.265625-34.304687 14.027344-7.859376 29.035156-13.828126 44.632812-17.746094 17.253906-4.648438 34.863282-7.875 52.648438-9.644532zm0 0" fill="#91562d"/><path d="m70.742188 221.667969h-19.542969c-9.414063-.027344-17.039063-7.652344-17.066407-17.066407-.019531-2.417968.507813-4.808593 1.535157-6.996093.824219-1.890625 2.015625-3.601563 3.5-5.035157 3.160156-3.242187 7.503906-5.058593 12.03125-5.035156h17.664062c-.414062 3.65625-.613281 7.332032-.597656 11.007813.011719 4.046875.242187 8.09375.683594 12.117187.425781 3.753906 1.023437 7.339844 1.792969 11.007813zm0 0" fill="#ffe0b2"/><path d="m358.398438 204.601562c-.027344 9.414063-7.652344 17.039063-17.066407 17.066407h-19.539062c.765625-3.667969 1.363281-7.253907 1.792969-11.007813.441406-4.023437.667968-8.070312.679687-12.117187.019531-3.675781-.179687-7.351563-.597656-11.007813h17.664062c4.527344-.023437 8.871094 1.792969 12.035157 5.035156 1.484374 1.433594 2.671874 3.144532 3.496093 5.035157 1.03125 2.1875 1.554688 4.578125 1.535157 6.996093zm0 0" fill="#dfc49c"/><path d="m330.667969 93.839844c-7.386719-3.449219-14.96875-6.46875-22.699219-9.046875h-.085938c-36.082031-11.46875-73.757812-17.113281-111.617187-16.722657-37.855469-.390624-75.535156 5.253907-111.613281 16.722657h-.085938c-7.734375 2.578125-15.3125 5.597656-22.699218 9.046875.597656-4.609375 1.363281-9.214844 2.21875-13.824219 2.648437-14.71875 7.421874-28.976563 14.164062-42.324219 10.214844-19.203125 30.789062-30.574218 52.480469-29.015625 11.046875.820313 21.667969 4.625 30.71875 11.007813 4.574219 4.101562 9.550781 7.730468 14.847656 10.839844 6.34375 2.535156 13.148437 3.699218 19.96875 3.410156h.769531c6.566406.203125 13.105469-.960938 19.199219-3.410156 5.300781-3.109376 10.273437-6.738282 14.847656-10.839844 9.054688-6.382813 19.671875-10.1875 30.71875-11.007813 21.695313-1.558593 42.265625 9.8125 52.480469 29.015625 6.746094 13.347656 11.515625 27.605469 14.167969 42.324219.851562 4.609375 1.621093 9.214844 2.21875 13.824219zm0 0" fill="#ff9801"/><path d="m334.507812 385.851562-.085937.082032c-10.257813-9.703125-22.4375-17.148438-35.753906-21.84375v53.84375h-42.667969v-59.730469h-119.464844v59.730469h-42.667968v-53.84375c-13.316407 4.695312-25.5 12.140625-35.753907 21.84375l-.085937-.082032c-25.429688-19.800781-30.550782-57.003906-15.359375-87.382812 17.066406-34.132812 8.53125-76.800781 8.53125-76.800781h19.542969c11.773437 53.589843 63.488281 93.867187 125.523437 93.867187 62.039063 0 113.75-40.277344 125.527344-93.867187h19.539062s-8.53125 42.667969 8.535157 76.800781c15.1875 30.378906 10.070312 67.582031-15.359376 87.382812zm0 0" fill="#a0522d"/><path d="m334.507812 385.851562-.085937.082032c-4.089844-3.84375-8.484375-7.355469-13.140625-10.496094 16.085938-22.648438 18.003906-52.445312 4.949219-76.96875-8.175781-18.078125-11.808594-37.882812-10.582031-57.6875 2.648437-6.160156 4.703124-12.5625 6.144531-19.113281h19.539062s-8.53125 42.667969 8.535157 76.800781c15.1875 30.378906 10.070312 67.582031-15.359376 87.382812zm0 0" fill="#783e22"/><path d="m384 153.402344c-.84375 15.132812-8.183594 29.164062-20.136719 38.484375l-.085937.085937c-2.21875 1.960938-4.4375 3.839844-6.914063 5.632813-.824219-1.890625-2.011719-3.601563-3.496093-5.035157-3.164063-3.242187-7.507813-5.058593-12.035157-5.035156h-.085937c.085937-1.449218.085937-11.433594.085937-12.800781-.023437-11.566406-1.457031-23.082031-4.265625-34.304687-14.027344-7.859376-29.035156-13.828126-44.628906-17.746094-31.386719-8.230469-63.726562-12.25-96.171875-11.949219-13.820313-.023437-27.632813.660156-41.386719 2.046875-.679687.085938-1.449218.171875-2.132812.257812-17.785156 1.769532-35.394532 4.996094-52.648438 9.644532-15.597656 3.917968-30.605468 9.886718-44.632812 17.746094-2.808594 11.222656-4.238282 22.738281-4.265625 34.304687 0 1.367187 0 11.351563.085937 12.800781h-.085937c-4.527344-.023437-8.871094 1.792969-12.03125 5.035156-1.484375 1.433594-2.675781 3.144532-3.5 5.035157-12.882813-11.519531-27.132813-30.378907-27.132813-44.203125 0-23.210938 20.308594-44.203125 53.332032-59.5625 7.386718-3.449219 14.964843-6.46875 22.699218-9.046875h.085938c36.078125-11.46875 73.757812-17.113281 111.613281-16.722657 37.859375-.390624 75.535156 5.253907 111.617187 16.722657h.085938c7.730469 2.578125 15.3125 5.597656 22.699219 9.046875 33.023437 15.359375 53.332031 36.351562 53.332031 59.5625zm0 0" fill="#ffdc00"/><path d="m366.933594 460.601562v25.601563c-.027344 9.414063-7.652344 17.039063-17.066406 17.066406h-307.199219c-9.414063-.027343-17.039063-7.652343-17.066407-17.066406v-25.601563c.171876-43.332031 27.460938-81.917968 68.265626-96.511718l42.667968-5.886719h119.464844l42.667969 5.886719c40.800781 14.59375 68.09375 53.179687 68.265625 96.511718zm0 0" fill="#bb193b"/><path d="m343.296875 460.601562v25.601563c-.027344 9.414063-7.652344 17.039063-17.066406 17.066406h-283.5625c-9.414063-.027343-17.039063-7.652343-17.066407-17.066406v-25.601563c.171876-43.332031 27.460938-81.917968 68.265626-96.511718l42.667968-5.886719h95.828125l42.667969 5.886719c40.800781 14.59375 68.09375 53.179687 68.265625 96.511718zm0 0" fill="#ef314c"/><path d="m136.535156 358.203125v59.730469h-42.667968v-53.84375c10.953124-3.921875 22.5-5.914063 34.132812-5.886719zm0 0" fill="#02a9f4"/><path d="m298.667969 364.089844v53.84375h-42.667969v-59.730469h8.535156c11.628906-.027344 23.179688 1.964844 34.132813 5.886719zm0 0" fill="#02a9f4"/><path d="m85.332031 503.269531v-76.800781c0-4.714844 3.820313-8.535156 8.535157-8.535156h204.800781c4.710937 0 8.53125 3.820312 8.53125 8.535156v76.800781zm0 0" fill="#3f51b5"/><path d="m170.667969 313.230469h51.199219v70.570312h-51.199219zm0 0" fill="#ffe0b2"/><path d="m324.265625 198.542969c-.011719 4.046875-.238281 8.09375-.679687 12.117187-.429688 3.753906-1.027344 7.339844-1.792969 11.007813-11.777344 53.589843-63.488281 93.867187-125.527344 93.867187-4.007813 0-7.933594-.171875-11.773437-.425781-56.75-4.78125-102.742188-43.265625-113.75-93.441406-.769532-3.667969-1.367188-7.253907-1.792969-11.007813-.441407-4.023437-.671875-8.070312-.683594-12.117187-.015625-3.675781.183594-7.351563.597656-11.007813.257813-3.070312.769531-6.144531 1.28125-9.214844.765625-3.753906 1.707031-7.425781 2.816407-11.09375v-.085937c.683593-1.449219 1.363281-3.070313 2.132812-4.777344 27.320312.644531 53.183594-12.300781 69.035156-34.5625.308594-.347656.59375-.71875.851563-1.109375 2.5625-.253906 5.121093-.597656 7.765625-.851562.683594-.085938 1.453125-.171875 2.132812-.257813 3.160156-.339843 6.316406-.597656 9.558594-.851562h.085938c29.953124 29.867187 88.0625 36.351562 122.878906 37.375 2.21875.171875 4.265625.171875 6.316406.171875 13.394531.253906 22.015625-.34375 22.015625-.34375l1.195313-.597656c1.023437 2.050781 1.875 4.011718 2.644531 5.804687v.085937c1.109375 3.667969 2.046875 7.339844 2.816406 11.09375.511719 3.070313 1.023437 6.144532 1.277344 9.214844.417969 3.65625.617187 7.332032.597656 11.007813zm0 0" fill="#dfc49c"/><path d="m300.628906 198.542969c-.011718 4.046875-.238281 8.09375-.683594 12.117187-.425781 3.753906-1.023437 7.339844-1.789062 11.007813-11.007812 50.175781-57.003906 88.660156-113.664062 93.441406-56.75-4.78125-102.742188-43.265625-113.75-93.441406-.769532-3.667969-1.367188-7.253907-1.792969-11.007813-.441407-4.023437-.671875-8.070312-.683594-12.117187-.015625-3.675781.183594-7.351563.597656-11.007813.257813-3.070312.769531-6.144531 1.28125-9.214844.765625-3.753906 1.707031-7.425781 2.816407-11.09375v-.085937c.683593-1.449219 1.363281-3.070313 2.132812-4.777344 27.320312.644531 53.183594-12.300781 69.035156-34.5625 40.277344 35.753907 122.792969 35.074219 143.273438 34.304688 2.988281-.085938 4.695312-.171875 4.695312-.171875l1.191406-.597656c.164063.304687.304688.621093.429688.941406.851562 1.707031 1.535156 3.328125 2.21875 4.863281v.085937c1.109375 3.667969 2.046875 7.339844 2.816406 11.09375.511719 3.070313 1.023438 6.144532 1.277344 9.214844.417969 3.65625.617188 7.332032.597656 11.007813zm0 0" fill="#ffe0b2"/><path d="m503.464844 298.46875v76.800781c-.027344 9.414063-7.652344 17.039063-17.066406 17.066407h-102.398438c-9.414062-.027344-17.039062-7.652344-17.066406-17.066407v-76.800781c-.027344-31.503906 24.453125-57.589844 55.894531-59.5625.1875-.085938.40625-.085938.597656 0 1.074219-.140625 2.15625-.199219 3.242188-.171875h17.066406c15.84375-.011719 31.042969 6.277344 42.25 17.484375 11.203125 11.203125 17.492187 26.402344 17.480469 42.25zm0 0" fill="#707070"/><path d="m479.828125 298.46875v76.800781c-.027344 9.414063-7.652344 17.039063-17.066406 17.066407h-78.761719c-9.414062-.027344-17.039062-7.652344-17.066406-17.066407v-76.800781c-.027344-31.503906 24.453125-57.589844 55.894531-59.5625.1875-.085938.40625-.085938.597656 0 31.664063 1.664062 56.464844 27.855469 56.402344 59.5625zm0 0" fill="#9e9e9e"/><path d="m452.265625 358.203125v136.53125c0 4.714844-3.820313 8.535156-8.53125 8.535156h-17.066406c-4.714844 0-8.535157-3.820312-8.535157-8.535156v-136.53125zm0 0" fill="#91562d"/><path d="m384 153.402344c-.84375 15.132812-8.183594 29.164062-20.136719 38.484375l-.085937.085937c-2.21875 1.960938-4.4375 3.839844-6.914063 5.632813-.824219-1.890625-2.011719-3.601563-3.496093-5.035157-2.421876-2.484374-5.550782-4.152343-8.960938-4.777343 9.6875-8.878907 15.433594-21.257813 15.957031-34.390625 0-23.210938-20.308593-44.203125-53.332031-59.5625-7.390625-3.449219-14.96875-6.46875-22.699219-9.046875h-.085937c-32.269532-10.34375-65.875-15.921875-99.753906-16.554688 3.839843-.085937 7.847656-.167969 11.773437-.167969 37.859375-.390624 75.535156 5.253907 111.617187 16.722657h.085938c7.730469 2.578125 15.3125 5.597656 22.699219 9.046875 33.023437 15.359375 53.332031 36.351562 53.332031 59.5625zm0 0" fill="#fec108"/><path d="m330.667969 93.839844c-7.386719-3.449219-14.96875-6.46875-22.699219-9.046875h-.085938c-.769531-.253907-1.535156-.511719-2.390624-.765625-.167969-1.367188-.425782-2.648438-.679688-4.011719-2.652344-14.71875-7.421875-28.976563-14.167969-42.324219-7.558593-14.3125-21.105469-24.511718-36.949219-27.820312 2.667969-.613282 5.378907-1.011719 8.105469-1.195313 21.695313-1.558593 42.265625 9.8125 52.480469 29.015625 6.746094 13.347656 11.515625 27.605469 14.167969 42.324219.851562 4.609375 1.621093 9.214844 2.21875 13.824219zm0 0" fill="#f57c00"/><path d="m196.265625 324.070312c-70.183594 0-128.5625-48.355468-135.796875-112.476562-1.304688-11.589844-.871094-23.308594 1.28125-34.769531.878906-4.355469 1.898438-8.402344 3.046875-12.175781.890625-2.917969 3.269531-5.136719 6.238281-5.824219 2.972656-.6875 6.082032.265625 8.164063 2.492187 2.078125 2.230469 2.8125 5.398438 1.921875 8.316406-1.027344 3.371094-1.898438 6.894532-2.613282 10.414063-1.828124 9.78125-2.191406 19.78125-1.074218 29.667969 6.253906 55.445312 57.34375 97.285156 118.832031 97.285156s112.582031-41.839844 118.839844-97.324219c1.117187-9.929687.746093-19.96875-1.109375-29.785156-.683594-3.363281-1.550782-6.886719-2.578125-10.257813-1.378907-4.507812 1.160156-9.277343 5.667969-10.65625 4.507812-1.375 9.277343 1.164063 10.65625 5.671876 1.148437 3.773437 2.164062 7.820312 3.011718 12.015624 1.339844 7.210938 2.027344 14.53125 2.046875 21.867188-.007812 4.351562-.253906 8.699219-.734375 13.023438-7.238281 64.160156-65.617187 112.515624-135.800781 112.515624zm0 0"/><path d="m70.742188 230.203125h-19.542969c-14.132813-.015625-25.582031-11.46875-25.597657-25.601563-.027343-3.699218.789063-7.351562 2.378907-10.691406 1.21875-2.769531 2.972656-5.277344 5.152343-7.375 4.753907-4.855468 11.273438-7.574218 18.066407-7.535156h17.664062c4.714844 0 8.535157 3.824219 8.535157 8.535156 0 4.710938-3.820313 8.535156-8.535157 8.535156h-17.578125c-2.253906-.039062-4.425781.847657-6.007812 2.457032-.714844.648437-1.292969 1.429687-1.707032 2.304687-1.328124 2.636719-1.1875 5.777344.371094 8.285157 1.554688 2.511718 4.304688 4.03125 7.257813 4.019531h19.542969c4.710937 0 8.53125 3.820312 8.53125 8.53125 0 4.714843-3.820313 8.535156-8.53125 8.535156zm0 0"/><path d="m341.332031 230.203125h-19.539062c-4.714844 0-8.535157-3.820313-8.535157-8.535156 0-4.710938 3.820313-8.53125 8.535157-8.53125h19.539062c4.710938-.007813 8.527344-3.824219 8.535157-8.535157-.023438-2.253906-.933594-4.410156-2.535157-6-1.566406-1.632812-3.734375-2.546874-6-2.53125h-17.664062c-4.710938 0-8.53125-3.824218-8.53125-8.535156 0-4.710937 3.820312-8.535156 8.53125-8.535156h17.578125c6.859375-.050781 13.441406 2.699219 18.226562 7.609375 4.75 4.789063 7.429688 11.25 7.460938 17.992187-.015625 14.132813-11.46875 25.585938-25.601563 25.601563zm0 0"/><path d="m51.269531 196.039062c-4.511719.007813-8.242187-3.507812-8.507812-8.011718-.082031-1.507813-.09375-11.871094-.09375-13.292969.027343-12.257813 1.542969-24.464844 4.515625-36.355469 1.132812-4.578125 5.761718-7.367187 10.335937-6.230468 4.574219 1.132812 7.363281 5.761718 6.230469 10.335937-2.640625 10.546875-3.988281 21.378906-4.015625 32.25 0 1.304687-.007813 10.738281.070313 12.324219.230468 4.699218-3.375 8.703125-8.070313 8.96875-.15625.007812-.308594.011718-.464844.011718zm0 0"/><path d="m197.035156 42.46875h-.769531c-4.710937 0-8.53125-3.820312-8.53125-8.535156 0-4.710938 3.820313-8.53125 8.53125-8.53125 4.789063-.027344 8.734375 3.746094 8.917969 8.53125.085937 2.222656-.730469 4.386718-2.269532 5.992187-1.535156 1.609375-3.65625 2.527344-5.878906 2.542969zm0 0"/><path d="m341.257812 196.070312c-.171874 0-.328124 0-.5-.015624-4.699218-.269532-8.292968-4.296876-8.027343-9 .078125-1.601563.070312-11.015626.070312-12.320313-.027343-10.871094-1.375-21.703125-4.015625-32.25-.734375-2.957031.164063-6.085937 2.359375-8.199219 2.199219-2.117187 5.355469-2.898437 8.285157-2.054687 2.929687.84375 5.1875 3.1875 5.921874 6.148437 2.96875 11.890625 4.488282 24.097656 4.515626 36.355469 0 1.421875-.011719 11.785156-.097657 13.292969-.257812 4.511718-3.992187 8.039062-8.511719 8.042968zm0 0"/><path d="m307.96875 93.328125h-.085938c-4.703124-.023437-8.503906-3.851563-8.492187-8.554687.011719-4.707032 3.832031-8.511719 8.535156-8.511719s8.519531 3.804687 8.53125 8.511719c.011719 4.703124-3.785156 8.53125-8.488281 8.554687zm0 0"/><path d="m84.652344 93.328125h-.085938c-4.707031-.023437-8.503906-3.851563-8.492187-8.554687.011719-4.707032 3.828125-8.511719 8.535156-8.511719 4.703125 0 8.519531 3.804687 8.53125 8.511719.011719 4.703124-3.785156 8.53125-8.488281 8.554687zm0 0"/><path d="m72.960938 175.714844c-2.257813.007812-4.429688-.878906-6.03125-2.472656-1.601563-1.59375-2.5-3.757813-2.503907-6.015626v-.085937c0-1.175781.242188-2.335937.71875-3.414063 7.183594-16.839843 16.785157-32.546874 28.5-46.621093 3.109375-3.441407 8.402344-3.769531 11.914063-.734375 3.507812 3.035156 3.953125 8.316406.996094 11.894531-10.539063 12.703125-19.183594 26.863281-25.667969 42.039063-1.285157 3.257812-4.425781 5.398437-7.925781 5.410156zm0 0"/><path d="m319.574219 175.714844c-3.664063.011718-6.921875-2.320313-8.097657-5.789063-6.457031-15.039062-15.042968-29.070312-25.496093-41.664062-2.957031-3.578125-2.511719-8.859375.996093-11.894531 3.511719-3.035157 8.804688-2.707032 11.914063.734374 11.714844 14.074219 21.316406 29.777344 28.5 46.621094.472656 1.074219.71875 2.238282.71875 3.414063.003906 4.722656-3.8125 8.558593-8.535156 8.578125zm0 0"/><path d="m170.667969 392.335938c-4.714844 0-8.535157-3.820313-8.535157-8.535157v-70.570312c0-4.710938 3.820313-8.53125 8.535157-8.53125 4.710937 0 8.53125 3.820312 8.53125 8.53125v70.570312c0 4.714844-3.820313 8.535157-8.53125 8.535157zm0 0"/><path d="m221.867188 392.335938c-4.714844 0-8.535157-3.820313-8.535157-8.535157v-70.570312c0-4.710938 3.820313-8.53125 8.535157-8.53125 4.710937 0 8.53125 3.820312 8.53125 8.53125v70.570312c0 4.714844-3.820313 8.535157-8.53125 8.535157zm0 0"/><path d="m349.867188 511.800781h-307.199219c-14.132813-.015625-25.585938-11.46875-25.601563-25.597656v-25.601563c.066406-61.238281 49.695313-110.867187 110.933594-110.933593h42.667969c4.710937 0 8.53125 3.820312 8.53125 8.535156 0 4.710937-3.820313 8.53125-8.53125 8.53125h-42.667969c-51.816406.058594-93.808594 42.050781-93.867188 93.867187v25.601563c.007813 4.710937 3.824219 8.527344 8.535157 8.53125h307.199219c4.710937-.003906 8.527343-3.820313 8.53125-8.53125v-25.601563c-.058594-51.816406-42.046876-93.808593-93.863282-93.867187h-42.667968c-4.714844 0-8.535157-3.820313-8.535157-8.53125 0-4.714844 3.820313-8.535156 8.535157-8.535156h42.667968c61.238282.066406 110.863282 49.695312 110.929688 110.933593v25.601563c-.015625 14.128906-11.464844 25.582031-25.597656 25.597656zm0 0"/><path d="m337.058594 148.964844c-1.515625 0-3-.402344-4.304688-1.171875-13.363281-7.480469-27.664062-13.152344-42.519531-16.867188-30.667969-8.039062-62.265625-11.960937-93.96875-11.65625-31.679687-.253906-63.253906 3.660157-93.914063 11.640625-14.878906 3.71875-29.191406 9.394532-42.570312 16.882813-2.632812 1.585937-5.917969 1.632812-8.59375.125-2.675781-1.511719-4.335938-4.34375-4.34375-7.414063-.007812-3.074218 1.640625-5.914062 4.308594-7.433594 14.683594-8.257812 30.402344-14.523437 46.738281-18.636718 32.117187-8.367188 65.191406-12.480469 98.375-12.230469 33.21875-.304687 66.328125 3.816406 98.460937 12.257813 16.304688 4.105468 31.996094 10.363281 46.652344 18.609374 3.324219 1.945313 4.933594 5.882813 3.921875 9.597657-1.011719 3.71875-4.390625 6.300781-8.242187 6.296875zm0 0"/><path d="m61.878906 102.371094c-.371094.003906-.746094-.019532-1.117187-.070313-2.242188-.292969-4.28125-1.464843-5.660157-3.257812-1.378906-1.792969-1.992187-4.0625-1.699218-6.308594 2.273437-20.523437 8.125-40.492187 17.285156-59 11.769531-22.207031 35.542969-35.375 60.613281-33.570313 12.613281.898438 24.742188 5.238282 35.066407 12.542969 1.996093 1.421875 3.839843 2.964844 5.667968 4.507813 2.320313 2.183594 4.929688 4.039062 7.757813 5.519531 5.25 2.007813 10.855469 2.917969 16.472656 2.667969 4.714844 0 8.535156 3.820312 8.535156 8.53125 0 4.714844-3.820312 8.535156-8.535156 8.535156-8.035156.292969-16.039063-1.128906-23.484375-4.171875-4.28125-2.101563-8.242188-4.8125-11.757812-8.042969-1.46875-1.238281-2.941407-2.492187-4.523438-3.617187-7.777344-5.464844-16.882812-8.726563-26.359375-9.449219-18.320313-1.324219-35.699219 8.269531-44.339844 24.476562-8.21875 16.722657-13.453125 34.753907-15.46875 53.28125-.554687 4.246094-4.171875 7.421876-8.453125 7.425782zm0 0"/><path d="m330.652344 102.371094c-4.277344-.003906-7.890625-3.183594-8.445313-7.425782-2.019531-18.535156-7.257812-36.574218-15.484375-53.300781-8.664062-16.1875-26.035156-25.769531-44.34375-24.457031-9.484375.726562-18.597656 4-26.378906 9.472656-1.542969 1.101563-3.015625 2.355469-4.484375 3.597656-3.523437 3.234376-7.492187 5.949219-11.789063 8.054688-7.160156 2.929688-14.851562 4.34375-22.585937 4.15625h-.875c-4.710937 0-8.53125-3.820312-8.53125-8.535156 0-4.710938 3.820313-8.53125 8.53125-8.53125h.769531c5.339844.164062 10.664063-.734375 15.652344-2.644532 2.847656-1.480468 5.476562-3.34375 7.8125-5.539062 1.832031-1.546875 3.671875-3.085938 5.632812-4.484375 10.324219-7.316406 22.457032-11.664063 35.078126-12.570313 25.058593-1.753906 48.800781 11.386719 60.621093 33.550782 9.167969 18.511718 15.023438 38.488281 17.296875 59.019531.292969 2.246094-.316406 4.515625-1.695312 6.308594-1.382813 1.792969-3.417969 2.964843-5.664063 3.257812-.367187.050781-.742187.074219-1.117187.070313zm0 0"/><path d="m136.535156 426.46875h-42.667968c-4.714844 0-8.535157-3.820312-8.535157-8.535156v-53.84375c0-4.710938 3.820313-8.535156 8.535157-8.535156 4.710937 0 8.53125 3.824218 8.53125 8.535156v45.3125h25.601562v-51.199219c0-4.714844 3.820312-8.535156 8.535156-8.535156 4.710938 0 8.53125 3.820312 8.53125 8.535156v59.730469c0 4.714844-3.820312 8.535156-8.53125 8.535156zm0 0"/><path d="m298.667969 426.46875h-42.667969c-4.710938 0-8.535156-3.820312-8.535156-8.535156v-59.730469c0-4.714844 3.824218-8.535156 8.535156-8.535156s8.535156 3.820312 8.535156 8.535156v51.199219h25.597656v-45.3125c0-4.710938 3.820313-8.535156 8.535157-8.535156 4.710937 0 8.53125 3.824218 8.53125 8.535156v53.84375c0 4.714844-3.820313 8.535156-8.53125 8.535156zm0 0"/><path d="m307.199219 511.800781c-4.710938 0-8.53125-3.820312-8.53125-8.53125v-76.800781h-204.800781v76.800781c0 4.710938-3.820313 8.53125-8.535157 8.53125-4.710937 0-8.53125-3.820312-8.53125-8.53125v-76.800781c.007813-9.421875 7.644531-17.058594 17.066407-17.066406h204.800781c9.421875.007812 17.054687 7.644531 17.066406 17.066406v76.800781c0 4.710938-3.820313 8.53125-8.535156 8.53125zm0 0"/><path d="m128 452.070312c0 4.710938-3.820312 8.53125-8.535156 8.53125-4.710938 0-8.53125-3.820312-8.53125-8.53125 0-4.714843 3.820312-8.535156 8.53125-8.535156 4.714844 0 8.535156 3.820313 8.535156 8.535156zm0 0"/><path d="m281.601562 452.070312c0 4.710938-3.820312 8.53125-8.535156 8.53125-4.710937 0-8.53125-3.820312-8.53125-8.53125 0-4.714843 3.820313-8.535156 8.53125-8.535156 4.714844 0 8.535156 3.820313 8.535156 8.535156zm0 0"/><path d="m486.398438 400.867188h-34.132813c-4.710937 0-8.53125-3.820313-8.53125-8.53125 0-4.714844 3.820313-8.535157 8.53125-8.535157h34.132813c4.710937-.003906 8.527343-3.820312 8.535156-8.53125v-76.800781c-.03125-28.265625-22.9375-51.167969-51.199219-51.199219h-17.066406c-28.265625.03125-51.171875 22.933594-51.203125 51.199219v76.800781c.007812 4.710938 3.824218 8.527344 8.535156 8.53125h34.132812c4.714844 0 8.535157 3.820313 8.535157 8.535157 0 4.710937-3.820313 8.53125-8.535157 8.53125h-34.132812c-14.132812-.015626-25.585938-11.464844-25.601562-25.597657v-76.800781c.042968-37.683594 30.582031-68.222656 68.269531-68.265625h17.066406c37.683594.042969 68.222656 30.582031 68.265625 68.265625v76.800781c-.015625 14.132813-11.46875 25.582031-25.601562 25.597657zm0 0"/><path d="m443.734375 511.800781h-17.066406c-9.421875-.007812-17.058594-7.644531-17.066407-17.066406v-136.53125c0-4.714844 3.820313-8.535156 8.53125-8.535156 4.714844 0 8.535157 3.820312 8.535157 8.535156v136.53125h17.066406v-136.53125c0-4.714844 3.820313-8.535156 8.53125-8.535156 4.714844 0 8.535156 3.820312 8.535156 8.535156v136.53125c-.011719 9.421875-7.644531 17.058594-17.066406 17.066406zm0 0"/><path d="m401.066406 324.070312c-4.710937 0-8.53125-3.824218-8.53125-8.535156v-25.601562c0-4.710938 3.820313-8.53125 8.53125-8.53125 4.714844 0 8.535156 3.820312 8.535156 8.53125v25.601562c0 4.710938-3.820312 8.535156-8.535156 8.535156zm0 0"/><path d="m58.007812 394.382812c-1.898437.003907-3.742187-.632812-5.238281-1.800781-27.824219-21.664062-35.289062-62.851562-17.75-97.929687 15.507813-31.011719 7.875-70.921875 7.796875-71.320313-.921875-4.625 2.078125-9.117187 6.699219-10.039062 4.625-.921875 9.117187 2.078125 10.039063 6.699219.371093 1.863281 8.898437 45.960937-9.265626 82.292968-13.921874 27.832032-8.46875 60.144532 12.96875 76.832032 2.875 2.242187 4.011719 6.058593 2.828126 9.507812-1.183594 3.445312-4.429688 5.761719-8.074219 5.761719zm0 0"/><path d="m334.496094 394.382812c-3.644532 0-6.890625-2.3125-8.074219-5.761718-1.183594-3.445313-.046875-7.265625 2.828125-9.503906 21.429688-16.6875 26.886719-49 12.972656-76.832032-18.167968-36.335937-9.640625-80.429687-9.269531-82.292968.921875-4.621094 5.417969-7.621094 10.039063-6.699219 4.621093.921875 7.621093 5.414062 6.699218 10.035156-.078125.402344-7.710937 40.308594 7.796875 71.320313 17.535157 35.085937 10.070313 76.269531-17.753906 97.933593-1.496094 1.167969-3.339844 1.804688-5.238281 1.800781zm0 0"/><path d="m75.121094 170.894531c-4.714844 0-8.535156-3.820312-8.535156-8.53125 0-4.714843 3.820312-8.535156 8.535156-8.535156 29.980468.570313 57.417968-16.777344 69.761718-44.105469 1.832032-4.339844 6.835938-6.375 11.179688-4.542968 4.34375 1.832031 6.378906 6.835937 4.546875 11.179687-15.0625 33.605469-48.664063 55.042969-85.488281 54.535156zm0 0"/><path d="m298.515625 170.933594c-37.035156 0-120.90625-5.539063-150.878906-53.636719-1.667969-2.589844-1.816407-5.875-.378907-8.601563 1.433594-2.726562 4.226563-4.46875 7.308594-4.554687 3.078125-.085937 5.964844 1.492187 7.554688 4.132813 32.753906 52.558593 151.847656 45.214843 153.042968 45.148437 4.644532-.226563 8.621094 3.308594 8.929688 7.953125.3125 4.640625-3.152344 8.679688-7.789062 9.074219-1.136719.078125-7.738282.484375-17.789063.484375zm0 0"/><path d="m356.871094 206.136719c-3.703125.003906-6.984375-2.378907-8.125-5.898438-1.144532-3.519531.113281-7.375 3.113281-9.546875 2.242187-1.621094 4.25-3.332031 6.257813-5.105468 10.007812-7.847657 16.296874-19.511719 17.347656-32.183594 0-18.632813-17.640625-37.523438-48.398438-51.824219-6.9375-3.246094-14.054687-6.09375-21.320312-8.527344-.195313-.046875-.390625-.101562-.578125-.167969-35.203125-11.1875-71.964844-16.683593-108.902344-16.28125-36.933594-.402343-73.695313 5.09375-108.898437 16.28125-.199219.070313-.40625.128907-.609376.179688-7.230468 2.421875-14.316406 5.253906-21.222656 8.480469-30.828125 14.335937-48.46875 33.226562-48.46875 51.859375 0 9.195312 10.441406 25.460937 24.292969 37.839844 3.511719 3.144531 3.816406 8.539062.675781 12.050781-3.144531 3.515625-8.539062 3.816406-12.050781.675781-13.835937-12.367188-29.984375-33.027344-29.984375-50.566406 0-25.925782 20.691406-49.824219 58.265625-67.300782 7.664063-3.578124 15.527344-6.714843 23.554687-9.386718.222657-.074219.453126-.140625.6875-.199219 36.78125-11.640625 75.179688-17.371094 113.757813-16.980469 38.59375-.390625 77.003906 5.34375 113.800781 16.992188.222656.054687.4375.117187.648438.1875 8.050781 2.679687 15.933594 5.824218 23.617187 9.421875 37.507813 17.441406 58.203125 41.339843 58.203125 67.265625-.820312 17.566406-9.203125 33.921875-22.984375 44.84375-2.453125 2.222656-5.015625 4.316406-7.679687 6.273437-1.453125 1.054688-3.203125 1.621094-5 1.617188zm0 0"/></svg>