<?xml version="1.0" encoding="iso-8859-1"?>
<!-- Generator: Adobe Illustrator 19.0.0, SVG Export Plug-In . SVG Version: 6.00 Build 0)  -->
<svg xmlns="http://www.w3.org/2000/svg" xmlns:xlink="http://www.w3.org/1999/xlink" version="1.1" id="Layer_1" x="0px" y="0px" viewBox="0 0 512 512" style="enable-background:new 0 0 512 512;" xml:space="preserve" width="512" height="512">
<g id="XMLID_1992_">
	<rect id="XMLID_2260_" x="10" y="206" style="fill:#00CCF2;" width="122" height="296"/>
	<polygon id="XMLID_1459_" style="fill:#93E7F8;" points="380,179 380,10 132,10 132,502 380,502  "/>
	<path id="XMLID_1413_" style="fill:#C0E549;" d="M434,403.676L434,403.676c-37.555,0-68-30.445-68-68v-110.27   c0-37.555,30.445-68,68-68h0c37.555,0,68,30.445,68,68v110.27C502,373.231,471.555,403.676,434,403.676z"/>
	<path id="XMLID_1410_" style="fill:#D0EC7E;" d="M423.989,502c4.876-5.819,7.815-13.315,7.815-21.5c0-18.502-14.998-33.5-33.5-33.5   c-0.665,0-1.324,0.025-1.98,0.063C388.831,429.956,371.76,418,351.889,418c-21.46,0-39.652,13.943-46.043,33.26   c-4.836-2.709-10.408-4.26-16.346-4.26c-18.502,0-33.5,14.998-33.5,33.5c0,8.185,2.939,15.681,7.815,21.5H423.989z"/>
	<g id="XMLID_605_">
		<path id="XMLID_606_" d="M185.667,122.333c5.522,0,10-4.477,10-10V67.667c0-5.523-4.478-10-10-10s-10,4.477-10,10v44.667    C175.667,117.856,180.145,122.333,185.667,122.333z"/>
		<path id="XMLID_639_" d="M256.127,122.333c5.522,0,10-4.477,10-10V67.667c0-5.523-4.478-10-10-10s-10,4.477-10,10v44.667    C246.127,117.856,250.604,122.333,256.127,122.333z"/>
		<path id="XMLID_640_" d="M326.587,122.333c5.522,0,10-4.477,10-10V67.667c0-5.523-4.478-10-10-10s-10,4.477-10,10v44.667    C316.587,117.856,321.064,122.333,326.587,122.333z"/>
		<path id="XMLID_641_" d="M175.667,215.582c0,5.523,4.478,10,10,10s10-4.477,10-10v-44.667c0-5.523-4.478-10-10-10s-10,4.477-10,10    V215.582z"/>
		<path id="XMLID_642_" d="M246.127,215.582c0,5.523,4.478,10,10,10s10-4.477,10-10v-44.667c0-5.523-4.478-10-10-10s-10,4.477-10,10    V215.582z"/>
		<path id="XMLID_758_" d="M316.587,215.582c0,5.523,4.478,10,10,10s10-4.477,10-10v-44.667c0-5.523-4.478-10-10-10s-10,4.477-10,10    V215.582z"/>
		<path id="XMLID_1086_" d="M175.667,318.83c0,5.522,4.478,10,10,10s10-4.478,10-10v-44.667c0-5.522-4.478-10-10-10s-10,4.478-10,10    V318.83z"/>
		<path id="XMLID_1087_" d="M246.127,318.83c0,5.522,4.478,10,10,10s10-4.478,10-10v-44.667c0-5.522-4.478-10-10-10s-10,4.478-10,10    V318.83z"/>
		<path id="XMLID_1377_" d="M316.587,318.83c0,5.522,4.478,10,10,10s10-4.478,10-10v-44.667c0-5.522-4.478-10-10-10s-10,4.478-10,10    V318.83z"/>
		<path id="XMLID_1693_" d="M71,264.163c-5.522,0-10,4.478-10,10v44.667c0,5.522,4.478,10,10,10s10-4.478,10-10v-44.667    C81,268.641,76.522,264.163,71,264.163z"/>
		<path id="XMLID_1708_" d="M71,367.412c-5.522,0-10,4.478-10,10v44.667c0,5.522,4.478,10,10,10s10-4.478,10-10v-44.667    C81,371.89,76.522,367.412,71,367.412z"/>
		<path id="XMLID_1712_" d="M175.667,422.079c0,5.522,4.478,10,10,10s10-4.478,10-10v-44.667c0-5.522-4.478-10-10-10    s-10,4.478-10,10V422.079z"/>
		<path id="XMLID_1713_" d="M246.127,422.079c0,5.522,4.478,10,10,10s10-4.478,10-10v-44.667c0-5.522-4.478-10-10-10    s-10,4.478-10,10V422.079z"/>
		<path id="XMLID_1717_" d="M434,266.189c2.63,0,5.21-1.069,7.069-2.93c1.86-1.86,2.931-4.44,2.931-7.07    c0-2.64-1.07-5.21-2.931-7.07c-1.859-1.86-4.43-2.93-7.069-2.93c-2.63,0-5.21,1.07-7.07,2.93c-1.86,1.86-2.93,4.44-2.93,7.07    c0,2.629,1.069,5.209,2.93,7.07S431.37,266.189,434,266.189z"/>
		<path id="XMLID_1755_" d="M512,335.676V225.405c0-43.009-34.99-78-78-78c-16.313,0-31.466,5.042-44,13.638V20h13.5    c5.522,0,10-4.477,10-10s-4.478-10-10-10H380H132h-23.5c-5.522,0-10,4.477-10,10s4.478,10,10,10H122v52.333    c0,5.523,4.478,10,10,10s10-4.477,10-10V20h228v159c0,0.575,0.059,1.134,0.152,1.682C361.249,193.356,356,208.775,356,225.405    v110.271c0,16.537,5.188,31.876,14,44.509v30.697c-5.755-1.876-11.852-2.882-18.111-2.882c-5.264,0-10.397,0.705-15.302,2.028    v-32.616c0-5.522-4.478-10-10-10s-10,4.478-10,10v42.419c-6.523,4.935-12.021,11.24-16.034,18.599    c-3.595-0.944-7.313-1.43-11.053-1.43c-23.986,0-43.5,19.514-43.5,43.5c0,3.909,0.535,7.776,1.557,11.5H142V152.333    c0-5.523-4.478-10-10-10s-10,4.477-10,10V196H10c-5.522,0-10,4.477-10,10v296c0,5.522,4.478,10,10,10h492c5.522,0,10-4.478,10-10    s-4.478-10-10-10h-58v-78.987C482.301,408.086,512,375.296,512,335.676z M20,216h102v276H20V216z M434,167.405    c31.981,0,58,26.019,58,58v110.271c0,28.57-20.77,52.365-48,57.119v-96.606c0-5.522-4.478-10-10-10s-10,4.478-10,10v96.606    c-27.23-4.755-48-28.549-48-57.119V225.405C376,193.424,402.019,167.405,434,167.405z M390,400.038    c9.929,6.809,21.507,11.368,34,12.975v32.42c-6.138-4.51-13.491-7.458-21.476-8.229c-3.336-5.765-7.592-10.837-12.524-15.073    V400.038z M380,492H269.01c-1.959-3.49-3.01-7.455-3.01-11.5c0-12.958,10.542-23.5,23.5-23.5c4.012,0,7.973,1.032,11.457,2.984    c2.605,1.459,5.726,1.679,8.507,0.599c2.783-1.08,4.938-3.348,5.876-6.182C320.563,438.61,335.252,428,351.889,428    c15.289,0,29.136,9.058,35.276,23.076c1.681,3.836,5.563,6.213,9.755,5.97c0.459-0.027,0.92-0.046,1.385-0.046    c12.958,0,23.5,10.542,23.5,23.5c0,4.045-1.051,8.01-3.01,11.5H380z"/>
		<path id="XMLID_1787_" d="M130.87,122.33c2.63,0,5.21-1.06,7.069-2.93c1.86-1.86,2.931-4.44,2.931-7.07    c0-2.63-1.07-5.2-2.931-7.07c-1.859-1.86-4.439-2.93-7.069-2.93s-5.21,1.07-7.07,2.93s-2.93,4.44-2.93,7.07    c0,2.63,1.069,5.21,2.93,7.07C125.66,121.27,128.24,122.33,130.87,122.33z"/>
	</g>
</g>















</svg>
