<svg height="512pt" viewBox="0 1 512 511" width="512pt" xmlns="http://www.w3.org/2000/svg"><path d="m105 216.164062h226.335938v110.570313h-226.335938zm0 0" fill="#fea02c"/><path d="m183 283.78125v-33.785156h-44v19.382812zm0 0" fill="#ff5d5d"/><path d="m108.070312 477.535156c36.914063-60.484375 86.535157-110.574218 144.25-147.695312l2.214844-3.105469c-72.1875-45.09375-156.628906-70.109375-244.535156-70.109375v245.871094h82.832031zm0 0" fill="#62cd4d"/><path d="m92.832031 502.496094 15.238281-24.960938c83.804688-137.3125 233.0625-221.078125 393.929688-221.078125v246.039063zm0 0" fill="#a0e557"/><path d="m105 216.164062 56-56.332031 56 56.332031zm0 0" fill="#fe8f8d"/><path d="m331.335938 216.164062-56-56.332031h-114.335938l56 56.332031zm0 0" fill="#ff5d5d"/><g fill="#a0e557"><path d="m407.398438 227.859375c-74.648438-60.023437-74.648438-157.339844 0-217.359375 74.648437 60.019531 74.648437 157.335938 0 217.359375zm0 0"/><path d="m64 210.664062c-56.4375-45.378906-56.4375-118.953124 0-164.332031 56.4375 45.378907 56.4375 118.953125 0 164.332031zm0 0"/><path d="m190.230469 376.042969c-54.910157-28.960938-116.738281-44.917969-180.230469-44.917969v80.5c43.503906 0 86.019531 9.460938 124.855469 26.863281"/></g><path d="m180.546875 502.496094c71.316406-106.203125 192.980469-171.539063 321.453125-171.539063v80.5c-82.171875 0-160.824219 33.75-217.800781 91.039063zm0 0" fill="#62cd4d"/><path d="m502 401.457031c-83.515625 0-165.484375 34.257813-224.890625 93.988281-3.898437 3.917969-3.878906 10.25.035156 14.140626 1.953125 1.941406 4.5 2.910156 7.054688 2.910156 2.566406 0 5.132812-.980469 7.089843-2.945313 55.679688-55.984375 132.480469-88.09375 210.710938-88.09375 5.523438 0 10-4.476562 10-10 0-5.519531-4.476562-10-10-10zm0 0"/><path d="m293.46875 392.195312c-3.09375-4.578124-9.308594-5.78125-13.882812-2.6875-42.761719 28.882813-78.875 65.023438-107.34375 107.414063-3.078126 4.585937-1.859376 10.800781 2.726562 13.878906 1.714844 1.148438 3.648438 1.699219 5.566406 1.699219 3.21875 0 6.382813-1.554688 8.3125-4.425781 27.023438-40.246094 61.316406-74.5625 101.933594-101.996094 4.574219-3.089844 5.777344-9.304687 2.6875-13.882813zm0 0"/><path d="m502 320.957031c-44.707031 0-88.957031 7.636719-131.519531 22.699219-5.207031 1.839844-7.933594 7.554688-6.089844 12.761719 1.449219 4.105469 5.308594 6.667969 9.425781 6.667969 1.105469 0 2.230469-.1875 3.335938-.578126 40.414062-14.300781 82.417968-21.550781 124.847656-21.550781 5.523438 0 10-4.476562 10-10 0-5.523437-4.476562-10-10-10zm0 0"/><path d="m143.277344 443.878906c65.789062-85.777344 161.023437-145.335937 266.109375-167.65625.019531-.003906.039062-.007812.054687-.011718 30.199219-6.410157 61.203125-9.753907 92.558594-9.753907 5.519531 0 10-4.476562 10-9.996093 0-5.523438-4.480469-10-10-10-28.433594 0-56.757812 2.601562-84.601562 7.691406v-21.585938c36.144531-30.597656 55.984374-70.691406 55.984374-113.386718 0-44.144532-21.207031-85.507813-59.71875-116.472657-3.660156-2.941406-8.875-2.941406-12.535156 0-38.507812 30.964844-59.71875 72.328125-59.71875 116.472657 0 42.695312 19.84375 82.789062 55.984375 113.386718v25.675782c-19 4.324218-37.726562 9.835937-56.0625 16.472656v-58.550782c0-2.75-1.109375-5.238281-2.90625-7.046874v-.003907l-56-56.332031c-1.878906-1.886719-4.429687-2.949219-7.09375-2.949219h-114.332031c-2.660156 0-5.214844 1.0625-7.089844 2.949219l-56 56.332031v.003907c-1.796875 1.808593-2.910156 4.296874-2.910156 7.050781v38.1875c-6.96875-1.277344-13.96875-2.402344-21-3.363281v-35.648438c27.332031-23.511719 42.328125-54.175781 42.328125-86.84375 0-34.128906-16.359375-66.074219-46.0625-89.960938-3.660156-2.941406-8.871094-2.941406-12.53125 0-29.703125 23.882813-46.0625 55.832032-46.0625 89.960938 0 32.664062 14.996094 63.328125 42.328125 86.839844v33.351562c-14.582031-1.363281-29.261719-2.066406-44-2.066406-5.523438 0-10 4.476562-10 10s4.476562 10 10 10c79.960938 0 158.171875 21.15625 227.121094 61.292969-16.519532 11.226562-32.296875 23.488281-47.234375 36.6875-55.863281-28.460938-117.933594-43.480469-179.886719-43.480469-5.519531 0-10 4.476562-10 10s4.480469 10 10 10c56.371094 0 112.855469 13.109375 164.171875 38.003906-15.203125 14.707032-29.414063 30.441406-42.527344 47.074219-38.898437-16.3125-79.78125-24.578125-121.644531-24.578125-5.519531 0-10 4.476562-10 10s4.480469 10 10 10c37.5 0 74.164062 7.109375 109.1875 21.109375-6.910156 9.601563-13.476562 19.464844-19.652344 29.589844l-15.238281 24.964843c-2.878906 4.710938-1.386719 10.867188 3.324219 13.742188 1.628906.996094 3.425781 1.46875 5.203125 1.46875 3.367187 0 6.660156-1.707031 8.542969-4.792969l15.238281-24.964843c7.945312-13.019532 16.53125-25.546876 25.683593-37.574219.359376-.398438.695313-.824219.988282-1.289063zm218.136718-324.699218c0-35.542969 16.261719-69.210938 45.984376-95.59375 29.722656 26.382812 45.984374 60.050781 45.984374 95.59375 0 31.320312-12.640624 61.191406-35.984374 85.898437v-76.578125c0-5.523438-4.476563-10-10-10-5.523438 0-10 4.476562-10 10v76.578125c-23.347657-24.707031-35.984376-54.578125-35.984376-85.898437zm-329.742187 9.320312c0-25.507812 11.417969-49.734375 32.328125-68.984375 20.910156 19.246094 32.328125 43.476563 32.328125 68.984375 0 21.082031-7.808594 41.292969-22.328125 58.542969v-66.542969c0-5.523438-4.476562-10-10-10-5.519531 0-10 4.476562-10 10v66.542969c-14.519531-17.25-22.328125-37.460938-22.328125-58.542969zm275.621094 77.664062h-86.132813l-36.117187-36.332031h86.132812zm-146.292969-32.148437 31.960938 32.148437h-63.917969zm-46 52.148437h92v63.59375c-4.636719-2.132812-9.300781-4.195312-14-6.175781v-33.585937c0-5.519532-4.476562-10-10-10h-44c-5.519531 0-10 4.480468-10 10v11.890625c-4.648438-1.210938-9.3125-2.359375-14-3.429688zm58 49.527344c-7.929688-2.921875-15.929688-5.632812-24-8.121094v-7.574218h24zm54 23.851563v-73.378907h94.335938v56.3125c-17.128907 7.097657-33.867188 15.199219-50.09375 24.308594-5.1875 2.910156-10.3125 5.933594-15.378907 9.035156-9.453125-5.773437-19.078125-11.203124-28.863281-16.277343zm0 0"/><path d="m407.398438 100.5c2.628906 0 5.210937-1.070312 7.070312-2.933594 1.859375-1.859375 2.929688-4.4375 2.929688-7.066406 0-2.632812-1.066407-5.210938-2.929688-7.070312-1.859375-1.863282-4.441406-2.929688-7.070312-2.929688-2.628907 0-5.210938 1.066406-7.066407 2.929688-1.863281 1.859374-2.933593 4.4375-2.933593 7.070312 0 2.628906 1.070312 5.207031 2.933593 7.066406 1.855469 1.859375 4.4375 2.933594 7.066407 2.933594zm0 0"/><path d="m320.597656 365.769531c-1.855468 1.859375-2.929687 4.4375-2.929687 7.066407 0 2.640624 1.070312 5.210937 2.929687 7.070312 1.863282 1.863281 4.441406 2.929688 7.070313 2.929688 2.632812 0 5.210937-1.066407 7.070312-2.929688 1.859375-1.859375 2.929688-4.429688 2.929688-7.070312 0-2.628907-1.070313-5.207032-2.929688-7.066407-1.859375-1.863281-4.4375-2.933593-7.070312-2.933593-2.628907 0-5.207031 1.070312-7.070313 2.933593zm0 0"/></svg>